{
    "asset" : {
        "generator" : "Khronos glTF Blender I/O v1.6.16",
        "version" : "2.0"
    },
    "scene" : 0,
    "scenes" : [
        {
            "name" : "Scene",
            "nodes" : [
                0
            ]
        }
    ],
    "nodes" : [
        {
            "mesh" : 0,
            "name" : "Bomb",
            "rotation" : [
                0.7071068286895752,
                0,
                0,
                0.7071067094802856
            ]
        }
    ],
    "materials" : [
        {
            "doubleSided" : true,
            "name" : "Fuze",
            "normalTexture" : {
                "index" : 0,
                "scale" : 0.05000000074505806
            },
            "pbrMetallicRoughness" : {
                "baseColorTexture" : {
                    "index" : 1
                },
                "metallicFactor" : 0,
                "roughnessFactor" : 0.6732679605484009
            }
        },
        {
            "doubleSided" : true,
            "name" : "Metal",
            "normalTexture" : {
                "index" : 2,
                "scale" : 0.05000000074505806
            },
            "pbrMetallicRoughness" : {
                "baseColorTexture" : {
                    "index" : 3
                },
                "metallicFactor" : 0,
                "roughnessFactor" : 0.6732679605484009
            }
        }
    ],
    "meshes" : [
        {
            "name" : "Bomb",
            "primitives" : [
                {
                    "attributes" : {
                        "POSITION" : 0,
                        "NORMAL" : 1,
                        "TEXCOORD_0" : 2
                    },
                    "indices" : 3,
                    "material" : 0
                },
                {
                    "attributes" : {
                        "POSITION" : 4,
                        "NORMAL" : 5,
                        "TEXCOORD_0" : 6
                    },
                    "indices" : 7,
                    "material" : 1
                }
            ]
        }
    ],
    "textures" : [
        {
            "sampler" : 0,
            "source" : 0
        },
        {
            "sampler" : 0,
            "source" : 1
        },
        {
            "sampler" : 0,
            "source" : 0
        },
        {
            "sampler" : 0,
            "source" : 1
        }
    ],
    "images" : [
        {
            "bufferView" : 4,
            "mimeType" : "image/png",
            "name" : "Normal"
        },
        {
            "bufferView" : 5,
            "mimeType" : "image/png",
            "name" : "Albedo"
        }
    ],
    "accessors" : [
        {
            "bufferView" : 0,
            "componentType" : 5126,
            "count" : 134,
            "max" : [
                0.013737999834120274,
                0.011597000062465668,
                -0.12150400131940842
            ],
            "min" : [
                -0.03660399839282036,
                -0.01371300034224987,
                -0.2710829973220825
            ],
            "type" : "VEC3"
        },
        {
            "bufferView" : 1,
            "componentType" : 5126,
            "count" : 134,
            "type" : "VEC3"
        },
        {
            "bufferView" : 2,
            "componentType" : 5126,
            "count" : 134,
            "type" : "VEC2"
        },
        {
            "bufferView" : 3,
            "componentType" : 5123,
            "count" : 642,
            "type" : "SCALAR"
        },
        {
            "bufferView" : 6,
            "componentType" : 5126,
            "count" : 488,
            "max" : [
                0.15000000596046448,
                0.15000000596046448,
                0.15000000596046448
            ],
            "min" : [
                -0.15000000596046448,
                -0.15000000596046448,
                -0.19184699654579163
            ],
            "type" : "VEC3"
        },
        {
            "bufferView" : 7,
            "componentType" : 5126,
            "count" : 488,
            "type" : "VEC3"
        },
        {
            "bufferView" : 8,
            "componentType" : 5126,
            "count" : 488,
            "type" : "VEC2"
        },
        {
            "bufferView" : 9,
            "componentType" : 5123,
            "count" : 2592,
            "type" : "SCALAR"
        }
    ],
    "bufferViews" : [
        {
            "buffer" : 0,
            "byteLength" : 1608,
            "byteOffset" : 0
        },
        {
            "buffer" : 0,
            "byteLength" : 1608,
            "byteOffset" : 1608
        },
        {
            "buffer" : 0,
            "byteLength" : 1072,
            "byteOffset" : 3216
        },
        {
            "buffer" : 0,
            "byteLength" : 1284,
            "byteOffset" : 4288
        },
        {
            "buffer" : 0,
            "byteLength" : 1858285,
            "byteOffset" : 5572
        },
        {
            "buffer" : 0,
            "byteLength" : 356882,
            "byteOffset" : 1863860
        },
        {
            "buffer" : 0,
            "byteLength" : 5856,
            "byteOffset" : 2220744
        },
        {
            "buffer" : 0,
            "byteLength" : 5856,
            "byteOffset" : 2226600
        },
        {
            "buffer" : 0,
            "byteLength" : 3904,
            "byteOffset" : 2232456
        },
        {
            "buffer" : 0,
            "byteLength" : 5184,
            "byteOffset" : 2236360
        }
    ],
    "samplers" : [
        {
            "magFilter" : 9729,
            "minFilter" : 9987
        }
    ],
    "buffers" : [
        {
            "byteLength" : 2241544,
            "uri" : "data:application/octet-stream;base64,"
        }
    ]
}
